<svg width="17" height="17" viewBox="0 0 17 17" fill="none" xmlns="http://www.w3.org/2000/svg">
<path d="M10.2535 7.99991L16.7335 1.51991C16.8792 1.34986 16.9552 1.13113 16.9466 0.907415C16.938 0.683703 16.8452 0.47149 16.6869 0.313184C16.5286 0.154878 16.3164 0.0621375 16.0927 0.0534965C15.869 0.0448555 15.6502 0.12095 15.4802 0.266574L9.00019 6.74657L2.52019 0.257685C2.35015 0.112061 2.13141 0.0359672 1.9077 0.0446082C1.68399 0.0532493 1.47178 0.145989 1.31347 0.304295C1.15516 0.462601 1.06242 0.674814 1.05378 0.898526C1.04514 1.12224 1.12124 1.34097 1.26686 1.51102L7.74686 7.99991L1.25797 14.4799C1.16492 14.5596 1.08935 14.6577 1.03599 14.7679C0.982639 14.8782 0.952656 14.9983 0.947928 15.1207C0.9432 15.2432 0.963827 15.3652 1.00852 15.4793C1.0532 15.5934 1.12099 15.697 1.20762 15.7836C1.29424 15.8702 1.39784 15.938 1.51191 15.9827C1.62597 16.0274 1.74805 16.048 1.87046 16.0433C1.99288 16.0386 2.113 16.0086 2.22328 15.9552C2.33356 15.9019 2.43162 15.8263 2.5113 15.7332L9.00019 9.25324L15.4802 15.7332C15.6502 15.8789 15.869 15.955 16.0927 15.9463C16.3164 15.9377 16.5286 15.8449 16.6869 15.6866C16.8452 15.5283 16.938 15.3161 16.9466 15.0924C16.9552 14.8687 16.8792 14.65 16.7335 14.4799L10.2535 7.99991Z" fill="#616781"/>
</svg>
