<svg width="25" height="25" viewBox="0 0 25 25" fill="none" xmlns="http://www.w3.org/2000/svg">
<path d="M15.0001 10.3332C15.0001 10.068 14.8947 9.8136 14.7072 9.62606C14.5197 9.43853 14.2653 9.33317 14.0001 9.33317H11.3334V6.6665C11.3334 6.40129 11.2281 6.14693 11.0405 5.9594C10.853 5.77186 10.5986 5.6665 10.3334 5.6665C10.0682 5.6665 9.81384 5.77186 9.62631 5.9594C9.43877 6.14693 9.33341 6.40129 9.33341 6.6665V9.33317H6.66675C6.40153 9.33317 6.14718 9.43853 5.95964 9.62606C5.7721 9.8136 5.66675 10.068 5.66675 10.3332C5.66675 10.5984 5.7721 10.8527 5.95964 11.0403C6.14718 11.2278 6.40153 11.3332 6.66675 11.3332H9.33341V13.9998C9.33341 14.2651 9.43877 14.5194 9.62631 14.7069C9.81384 14.8945 10.0682 14.9998 10.3334 14.9998C10.5986 14.9998 10.853 14.8945 11.0405 14.7069C11.2281 14.5194 11.3334 14.2651 11.3334 13.9998V11.3332H14.0001C14.2653 11.3332 14.5197 11.2278 14.7072 11.0403C14.8947 10.8527 15.0001 10.5984 15.0001 10.3332Z" fill="white"/>
<path d="M10.3334 0.666504C12.1602 0.666277 13.9497 1.18369 15.4944 2.15879C17.0392 3.13389 18.2761 4.52676 19.0617 6.176C19.8473 7.82524 20.1495 9.66333 19.9333 11.4773C19.7171 13.2912 18.9913 15.0068 17.8401 16.4252L24.3734 22.9585C24.5528 23.1367 24.658 23.3763 24.6679 23.6289C24.6777 23.8816 24.5915 24.1286 24.4266 24.3203C24.2616 24.5119 24.0302 24.634 23.7789 24.6618C23.5275 24.6897 23.275 24.6213 23.0721 24.4705L22.9601 24.3732L16.4254 17.8398C15.2239 18.8147 13.806 19.4868 12.2908 19.7999C10.7756 20.113 9.20733 20.0577 7.7179 19.6389C6.22846 19.22 4.86133 18.4497 3.73139 17.3928C2.60145 16.3359 1.74172 15.0232 1.22445 13.565C0.707182 12.1068 0.547485 10.5457 0.758783 9.01303C0.970081 7.48031 1.5462 6.0207 2.43872 4.75687C3.33124 3.49304 4.51409 2.46191 5.88786 1.75014C7.26163 1.03836 8.78619 0.666741 10.3334 0.666504ZM10.3334 2.6665C9.3266 2.6665 8.32965 2.86481 7.39949 3.25009C6.46933 3.63538 5.62416 4.2001 4.91225 4.91202C4.20033 5.62393 3.63561 6.4691 3.25032 7.39926C2.86504 8.32943 2.66673 9.32637 2.66673 10.3332C2.66673 11.34 2.86504 12.3369 3.25032 13.2671C3.63561 14.1972 4.20033 15.0424 4.91225 15.7543C5.62416 16.4662 6.46933 17.031 7.39949 17.4162C8.32965 17.8015 9.3266 17.9998 10.3334 17.9998C12.3667 17.9998 14.3168 17.1921 15.7545 15.7543C17.1923 14.3165 18.0001 12.3665 18.0001 10.3332C18.0001 8.29984 17.1923 6.3498 15.7545 4.91202C14.3168 3.47424 12.3667 2.6665 10.3334 2.6665Z" fill="white"/>
</svg>
