<svg width="24" height="24" viewBox="0 0 24 24" fill="#fff" xmlns="http://www.w3.org/2000/svg">
<path fill-rule="evenodd" clip-rule="evenodd" d="M24 12C24 5.38342 18.6166 0 12 0C5.38342 0 0 5.38342 0 12C0 15.4948 1.50284 18.6449 3.89498 20.8399L3.88364 20.8499L4.27287 21.178C4.28605 21.1892 4.29981 21.1992 4.31356 21.2093C4.32621 21.2185 4.33885 21.2278 4.35098 21.2378C4.55782 21.4093 4.77207 21.5721 4.99025 21.7296C5.06095 21.7807 5.13164 21.8317 5.20364 21.8815C5.43665 22.042 5.67578 22.1943 5.92015 22.3388C5.97338 22.3702 6.02705 22.4007 6.08073 22.4313C6.34822 22.5836 6.62138 22.7271 6.90109 22.8589C6.90699 22.8617 6.91293 22.8644 6.91888 22.867C6.92327 22.869 6.92767 22.8709 6.93207 22.8729C6.94244 22.8775 6.9528 22.882 6.96305 22.8868C7.87462 23.3105 8.84771 23.6217 9.86531 23.8054L9.9456 23.8198C10.2615 23.8743 10.5809 23.918 10.9043 23.9472C10.9242 23.949 10.944 23.9504 10.964 23.9518C10.9834 23.9532 11.0029 23.9546 11.0225 23.9564C11.3446 23.983 11.6701 24 12 24C12.3268 24 12.6493 23.983 12.9696 23.9572C12.9899 23.9555 13.0102 23.9541 13.0305 23.9527C13.0508 23.9512 13.0711 23.9498 13.0913 23.9481C13.4121 23.9188 13.7289 23.8765 14.0417 23.8228C14.0688 23.818 14.0963 23.8132 14.1233 23.808C15.1257 23.6282 16.0848 23.3241 16.9846 22.9113C16.9935 22.9072 17.0024 22.9031 17.0114 22.8991C17.0162 22.8969 17.0211 22.8947 17.026 22.8925C17.0456 22.8838 17.0651 22.8751 17.0845 22.8659C17.3537 22.7393 17.6169 22.6028 17.8748 22.4575C17.9389 22.4212 18.0026 22.3846 18.0663 22.3471C18.3011 22.2087 18.5319 22.0643 18.7562 21.9107C18.8208 21.8667 18.8843 21.8207 18.948 21.7746L18.9484 21.7744L18.9958 21.7401C19.1873 21.6022 19.3754 21.4599 19.5583 21.3111C19.5765 21.2964 19.5953 21.2826 19.6141 21.2689C19.6372 21.2519 19.6603 21.235 19.6822 21.2164L20.0815 20.8831L20.0697 20.873C22.4828 18.6772 24 15.5127 24 12ZM0.872695 12C0.872695 5.86429 5.86426 0.872725 12 0.872725C18.1357 0.872725 23.1272 5.86429 23.1272 12C23.1272 15.3063 21.6763 18.2788 19.3793 20.3184C19.251 20.2298 19.1219 20.1504 18.9896 20.0841L15.2949 18.2369C14.9633 18.0711 14.7573 17.7377 14.7573 17.3673V16.0769C14.8429 15.9713 14.9332 15.8518 15.0266 15.7204C15.5048 15.0449 15.8884 14.2935 16.1681 13.4849C16.721 13.2223 17.0779 12.6716 17.0779 12.0497V10.5028C17.0779 10.1245 16.9392 9.75752 16.6909 9.46909V7.43258C16.7136 7.20611 16.7939 5.928 15.8692 4.87374C15.065 3.95563 13.7633 3.49091 12 3.49091C10.2366 3.49091 8.93495 3.95563 8.13073 4.87331C7.20608 5.92756 7.28637 7.20567 7.30906 7.43214V9.46865C7.0612 9.75709 6.922 10.1241 6.922 10.5024V12.0493C6.922 12.5297 7.13757 12.9779 7.50673 13.2803C7.86019 14.6649 8.5876 15.713 8.8564 16.0682V17.3311C8.8564 17.6871 8.66222 18.0144 8.34935 18.1855L4.89902 20.0675C4.78906 20.1273 4.67997 20.1971 4.57088 20.2752C2.30222 18.2365 0.872695 15.2823 0.872695 12ZM18.0619 21.3238C18.2195 21.2212 18.3748 21.1139 18.5275 21.003C18.5441 20.9911 18.5608 20.9792 18.5775 20.9674C18.6083 20.9456 18.6391 20.9238 18.6693 20.9009C18.6462 20.8887 18.6231 20.8765 18.5995 20.8647L14.9048 19.0176C14.2756 18.7034 13.8846 18.0707 13.8846 17.3673V15.7531L13.9928 15.6297C14.0884 15.5201 14.1997 15.377 14.314 15.2155C14.7792 14.5584 15.1457 13.8196 15.4032 13.0198L15.473 12.8038L15.6899 12.737C15.9936 12.6432 16.2052 12.3609 16.2052 12.0497V10.5028C16.2052 10.2999 16.1188 10.1105 15.9621 9.96915L15.8181 9.83911L15.8221 7.3514L15.8221 7.35097C15.8249 7.32499 15.9377 6.26668 15.2055 5.4397C14.5728 4.7258 13.4949 4.36362 12 4.36362C10.4993 4.36362 9.418 4.72886 8.78702 5.44799C8.04782 6.29061 8.17654 7.34006 8.17785 7.35053L8.18178 7.4077V9.83824L8.03778 9.96828C7.88069 10.1101 7.79473 10.299 7.79473 10.502V12.0489C7.79473 12.2937 7.9204 12.5206 8.13029 12.6563L8.27909 12.7527L8.3188 12.9255C8.67531 14.4794 9.61873 15.627 9.62833 15.6379L9.72869 15.7593L9.72913 17.331C9.72913 18.007 9.3604 18.6279 8.76694 18.9517L5.31662 20.8337L5.27473 20.8573C5.28454 20.8647 5.29414 20.8723 5.30374 20.88C5.31334 20.8876 5.32294 20.8953 5.33276 20.9027C5.52302 21.0454 5.71851 21.1802 5.91662 21.3098C5.97945 21.3508 6.04273 21.3914 6.10644 21.4315C6.32156 21.566 6.53974 21.6947 6.76273 21.8138C6.78206 21.8243 6.80172 21.8343 6.82141 21.8442C6.83372 21.8505 6.84604 21.8567 6.85829 21.8631C7.10265 21.9901 7.35007 22.1105 7.60229 22.2192L7.60796 22.2218C7.87458 22.3361 8.146 22.4395 8.42047 22.5329L8.47196 22.5504C9.02484 22.7358 9.59254 22.8777 10.1694 22.9741L10.2061 22.9806C10.4788 23.0252 10.7541 23.0579 11.0308 23.0823C11.0663 23.0856 11.1021 23.0881 11.1379 23.0907C11.1496 23.0915 11.1613 23.0924 11.1731 23.0932C11.4475 23.1137 11.7233 23.1273 12 23.1273C12.2736 23.1273 12.5459 23.1142 12.8168 23.0937C12.8284 23.0928 12.8399 23.092 12.8514 23.0912C12.8886 23.0887 12.9256 23.0861 12.9626 23.0827C13.2366 23.0588 13.5098 23.0269 13.7808 22.9828C13.7847 22.9822 13.7886 22.9814 13.7925 22.9806C13.7965 22.9799 13.8004 22.9791 13.8043 22.9785C14.0923 22.9309 14.3786 22.8729 14.6613 22.803C14.6618 22.803 14.6622 22.8029 14.6627 22.8028C14.6631 22.8027 14.6635 22.8026 14.664 22.8026C14.9441 22.7332 15.2212 22.6525 15.4948 22.5617C15.5056 22.5582 15.5162 22.5546 15.5267 22.551C15.5346 22.5483 15.5424 22.5456 15.5502 22.543C16.0725 22.3671 16.5809 22.1507 17.0723 21.8989C17.0895 21.89 17.1068 21.8813 17.1241 21.8725C17.1543 21.8572 17.1845 21.8419 17.2145 21.826C17.4283 21.7126 17.6378 21.5913 17.8437 21.4638C17.9098 21.4228 17.9744 21.3807 18.0392 21.3385L18.0619 21.3238Z" fill="white"/>
</svg>
