<svg width="24" height="24" viewBox="0 0 24 24" fill="none" xmlns="http://www.w3.org/2000/svg">
<g clip-path="url(#clip0)">
<path d="M18.5859 7.51892H18.1406V3.36279C18.1402 3.02725 18.0068 2.70556 17.7695 2.4683C17.5322 2.23103 17.2105 2.09756 16.875 2.09717H15.9358C15.9313 2.09717 15.9268 2.09829 15.9223 2.09848C15.9005 2.09939 15.8789 2.10253 15.8578 2.10786C15.8506 2.10967 15.8434 2.11186 15.8364 2.11442C15.817 2.12061 15.7982 2.12858 15.7802 2.13823C15.7763 2.14048 15.7718 2.14123 15.768 2.14367C11.886 4.47167 7.44459 5.70157 2.91806 5.70204H2.20312C1.61903 5.70274 1.05906 5.93508 0.646048 6.34809C0.233032 6.76111 0.000694698 7.32108 0 7.90517L0 11.1472C0.000694794 11.7313 0.233038 12.2913 0.646059 12.7042C1.05908 13.1172 1.61905 13.3495 2.20312 13.3502H2.71875L1.46644 20.6426C1.43987 20.7974 1.44742 20.956 1.48856 21.1076C1.5297 21.2591 1.60344 21.3998 1.70462 21.5198C1.8058 21.6399 1.93198 21.7364 2.07434 21.8026C2.2167 21.8688 2.37181 21.9031 2.52881 21.9032H4.24162C4.49603 21.9037 4.74238 21.814 4.93691 21.65C5.13144 21.4861 5.26157 21.2585 5.30419 21.0077L5.69794 18.7202H6.37294C6.62739 18.7207 6.8738 18.631 7.06835 18.467C7.2629 18.303 7.393 18.0754 7.4355 17.8245L7.74656 16.0147C7.77316 15.8599 7.76558 15.7011 7.72434 15.5494C7.6831 15.3978 7.6092 15.257 7.50783 15.137C7.40646 15.0169 7.28006 14.9205 7.13749 14.8544C6.99492 14.7884 6.83963 14.7543 6.6825 14.7545H6.37838L6.57281 13.6226C9.81838 14.1016 12.9378 15.2151 15.753 16.8997L15.7607 16.904L15.7687 16.9087H15.771C15.7952 16.923 15.8211 16.9341 15.8481 16.9417L15.8524 16.943C15.8801 16.951 15.9087 16.9552 15.9375 16.9556H16.875C17.2105 16.9552 17.5322 16.8217 17.7695 16.5845C18.0068 16.3472 18.1402 16.0255 18.1406 15.69V11.5354H18.5859C18.9712 11.5349 19.3405 11.3817 19.613 11.1093C19.8854 10.8368 20.0386 10.4675 20.0391 10.0822V8.97148C20.0385 8.58633 19.8852 8.21712 19.6128 7.94482C19.3404 7.67253 18.9711 7.51937 18.5859 7.51892ZM0.65625 11.1472V7.90517C0.656697 7.49505 0.819814 7.10186 1.10981 6.81186C1.39981 6.52186 1.79301 6.35874 2.20312 6.35829H2.91806C7.3685 6.35811 11.7423 5.19971 15.6094 2.99698V16.0554C12.7573 14.4315 9.61993 13.3703 6.36769 12.9292C6.36487 12.9292 6.36225 12.9274 6.35944 12.9268C6.35663 12.9262 6.34987 12.9268 6.34519 12.9268C5.20931 12.7726 4.06436 12.6948 2.91806 12.6939H2.20312C1.79304 12.6935 1.39987 12.5304 1.10988 12.2404C0.819885 11.9505 0.656746 11.5573 0.65625 11.1472ZM6.6825 15.4108C6.74393 15.4108 6.80462 15.4242 6.86033 15.4501C6.91604 15.476 6.96542 15.5137 7.00501 15.5607C7.04461 15.6077 7.07346 15.6627 7.08955 15.722C7.10565 15.7813 7.10859 15.8434 7.09819 15.9039L6.7875 17.7137C6.77086 17.8119 6.71994 17.9009 6.64379 17.9651C6.56764 18.0293 6.4712 18.0644 6.37162 18.0641H5.80912L6.15 16.0802L6.26494 15.4108H6.6825ZM4.6575 20.8965C4.64079 20.9946 4.58985 21.0837 4.51371 21.1478C4.43758 21.212 4.34118 21.2471 4.24162 21.2469H2.52881C2.46737 21.2469 2.40668 21.2335 2.35097 21.2076C2.29526 21.1817 2.24589 21.1439 2.2063 21.0969C2.16671 21.0499 2.13786 20.9949 2.12176 20.9356C2.10567 20.8763 2.10272 20.8142 2.11313 20.7536L3.38363 13.3582C4.23221 13.3741 5.07943 13.4332 5.922 13.5352L4.6575 20.8965ZM17.4844 15.6909C17.4842 15.8525 17.4199 16.0074 17.3057 16.1216C17.1914 16.2358 17.0366 16.3001 16.875 16.3003H16.2656V2.75342H16.875C17.0366 2.75362 17.1914 2.81788 17.3057 2.93212C17.4199 3.04636 17.4842 3.20124 17.4844 3.36279V15.6909ZM19.3828 10.0822C19.3826 10.2935 19.2985 10.496 19.1491 10.6454C18.9998 10.7948 18.7972 10.8789 18.5859 10.8791H18.1406V8.17517H18.5859C18.7972 8.17537 18.9998 8.25939 19.1492 8.40879C19.2986 8.55819 19.3826 8.76076 19.3828 8.97205V10.0822Z" fill="#616781"/>
<path d="M8.67094 12.484C8.7189 12.4947 8.76865 12.4944 8.81651 12.4833C8.86437 12.4722 8.90912 12.4504 8.94746 12.4197C8.98579 12.3889 9.01674 12.35 9.038 12.3057C9.05926 12.2614 9.07031 12.2129 9.07031 12.1637V6.88863C9.07031 6.83949 9.05926 6.79098 9.038 6.74668C9.01674 6.70238 8.98579 6.66342 8.94746 6.63268C8.90912 6.60194 8.86437 6.58021 8.81651 6.56908C8.76865 6.55795 8.7189 6.55771 8.67094 6.56838C6.78216 6.9888 4.85306 7.20132 2.91806 7.20213H2.20312C2.01672 7.20237 1.83802 7.27653 1.70621 7.40834C1.57441 7.54015 1.50025 7.71885 1.5 7.90525V11.1473C1.50025 11.3337 1.57441 11.5124 1.70621 11.6442C1.83802 11.776 2.01672 11.8502 2.20312 11.8504H2.91806C4.85305 11.8512 6.78215 12.0637 8.67094 12.484ZM2.15625 11.1473V7.90525C2.1564 7.89286 2.16138 7.88102 2.17014 7.87227C2.1789 7.86351 2.19074 7.85852 2.20312 7.85837H2.91806C4.76448 7.85743 6.60599 7.66833 8.41406 7.294V11.7565C6.60592 11.3828 4.76441 11.1943 2.91806 11.194H2.20312C2.19077 11.1939 2.17896 11.1889 2.17021 11.1802C2.16145 11.1715 2.15644 11.1597 2.15625 11.1473Z" fill="#616781"/>
<path d="M23.6719 9.19873H21.8203C21.7333 9.19873 21.6498 9.2333 21.5883 9.29484C21.5268 9.35637 21.4922 9.43983 21.4922 9.52686C21.4922 9.61388 21.5268 9.69734 21.5883 9.75888C21.6498 9.82041 21.7333 9.85498 21.8203 9.85498H23.6719C23.7589 9.85498 23.8424 9.82041 23.9039 9.75888C23.9654 9.69734 24 9.61388 24 9.52686C24 9.43983 23.9654 9.35637 23.9039 9.29484C23.8424 9.2333 23.7589 9.19873 23.6719 9.19873Z" fill="#616781"/>
<path d="M20.9248 7.69182C20.9679 7.69191 21.0106 7.68347 21.0504 7.66699C21.0902 7.65052 21.1263 7.62633 21.1568 7.59582L22.4659 6.28651C22.4963 6.25605 22.5205 6.21989 22.537 6.1801C22.5535 6.1403 22.562 6.09765 22.562 6.05457C22.562 6.0115 22.5535 5.96884 22.537 5.92905C22.5205 5.88925 22.4963 5.85309 22.4659 5.82263C22.4354 5.79218 22.3993 5.76801 22.3595 5.75153C22.3197 5.73505 22.277 5.72656 22.2339 5.72656C22.1909 5.72656 22.1482 5.73505 22.1084 5.75153C22.0686 5.76801 22.0325 5.79218 22.002 5.82263L20.6927 7.13176C20.6468 7.17766 20.6156 7.23613 20.603 7.29977C20.5903 7.36342 20.5968 7.42938 20.6217 7.48933C20.6465 7.54927 20.6886 7.60051 20.7425 7.63655C20.7965 7.67259 20.8599 7.69183 20.9248 7.69182Z" fill="#616781"/>
<path d="M21.1564 11.4574C21.0948 11.3959 21.0114 11.3613 20.9243 11.3613C20.8373 11.3613 20.7538 11.3959 20.6923 11.4574C20.6308 11.519 20.5962 11.6024 20.5962 11.6895C20.5962 11.7765 20.6308 11.86 20.6923 11.9215L22.0016 13.231C22.0319 13.2623 22.0681 13.2873 22.1081 13.3045C22.1482 13.3217 22.1912 13.3307 22.2348 13.3311C22.2784 13.3315 22.3216 13.3232 22.3619 13.3067C22.4022 13.2902 22.4389 13.2658 22.4697 13.235C22.5005 13.2042 22.5248 13.1675 22.5413 13.1272C22.5578 13.0869 22.5661 13.0436 22.5657 13.0001C22.5653 12.9565 22.5563 12.9135 22.539 12.8734C22.5218 12.8334 22.4968 12.7972 22.4655 12.7669L21.1564 11.4574Z" fill="#616781"/>
</g>
<defs>
<clipPath id="clip0">
<rect width="24" height="24" fill="white"/>
</clipPath>
</defs>
</svg>
