<svg width="21" height="20" viewBox="0 0 21 20" fill="none" xmlns="http://www.w3.org/2000/svg">
<g clip-path="url(#clip0)">
<path d="M19.2852 8.55572H18.3504V16.6668H2.76978V4.44461H4.43913V3.3335H2.63067C2.50059 3.33567 2.37222 3.3634 2.25288 3.41511C2.13354 3.46682 2.02557 3.5415 1.93514 3.63488C1.84471 3.72826 1.7736 3.83851 1.72585 3.95933C1.67811 4.08015 1.65467 4.20918 1.65688 4.33905V16.7724C1.65467 16.9023 1.67811 17.0313 1.72585 17.1521C1.7736 17.2729 1.84471 17.3832 1.93514 17.4766C2.02557 17.5699 2.13354 17.6446 2.25288 17.6963C2.37222 17.748 2.50059 17.7758 2.63067 17.7779H18.4895C18.6195 17.7758 18.7479 17.748 18.8673 17.6963C18.9866 17.6446 19.0946 17.5699 19.185 17.4766C19.2754 17.3832 19.3465 17.2729 19.3943 17.1521C19.442 17.0313 19.4655 16.9023 19.4633 16.7724V8.54461L19.2852 8.55572Z" fill="#182045"/>
<path d="M4.99561 7.77783H6.1085V8.88894H4.99561V7.77783Z" fill="#182045"/>
<path d="M8.33447 7.77783H9.44737V8.88894H8.33447V7.77783Z" fill="#182045"/>
<path d="M4.99561 10.5557H6.1085V11.6668H4.99561V10.5557Z" fill="#182045"/>
<path d="M8.33447 10.5557H9.44737V11.6668H8.33447V10.5557Z" fill="#182045"/>
<path d="M11.6729 10.5557H12.7857V11.6668H11.6729V10.5557Z" fill="#182045"/>
<path d="M15.0117 10.5557H16.1246V11.6668H15.0117V10.5557Z" fill="#182045"/>
<path d="M4.99561 13.3335H6.1085V14.4446H4.99561V13.3335Z" fill="#182045"/>
<path d="M8.33447 13.3335H9.44737V14.4446H8.33447V13.3335Z" fill="#182045"/>
<path d="M11.6729 13.3335H12.7857V14.4446H11.6729V13.3335Z" fill="#182045"/>
<path d="M15.0117 13.3335H16.1246V14.4446H15.0117V13.3335Z" fill="#182045"/>
<path d="M6.10821 5.55577C6.25579 5.55577 6.39732 5.49724 6.50168 5.39305C6.60603 5.28887 6.66466 5.14756 6.66466 5.00022V1.66688C6.66466 1.51954 6.60603 1.37823 6.50168 1.27405C6.39732 1.16986 6.25579 1.11133 6.10821 1.11133C5.96063 1.11133 5.81909 1.16986 5.71474 1.27405C5.61038 1.37823 5.55176 1.51954 5.55176 1.66688V5.00022C5.55176 5.14756 5.61038 5.28887 5.71474 5.39305C5.81909 5.49724 5.96063 5.55577 6.10821 5.55577Z" fill="#182045"/>
<path d="M15.4847 0.633447L12.3019 6.11123C12.2278 6.21974 12.1853 6.34661 12.179 6.47777C12.1728 6.60893 12.203 6.73926 12.2664 6.85431C12.3298 6.96936 12.4238 7.06465 12.5381 7.12961C12.6524 7.19457 12.7825 7.22666 12.9139 7.22234H19.2853C19.4167 7.22666 19.5468 7.19457 19.6611 7.12961C19.7754 7.06465 19.8695 6.96936 19.9328 6.85431C19.9962 6.73926 20.0265 6.60893 20.0202 6.47777C20.0139 6.34661 19.9714 6.21974 19.8974 6.11123L16.7145 0.633447C16.6517 0.526255 16.5619 0.437342 16.4541 0.375552C16.3462 0.313762 16.224 0.28125 16.0996 0.28125C15.9752 0.28125 15.853 0.313762 15.7452 0.375552C15.6373 0.437342 15.5475 0.526255 15.4847 0.633447V0.633447Z" fill="#8A0502"/>
</g>
<defs>
<clipPath id="clip0">
<rect width="20.0322" height="20" fill="white" transform="translate(0.543945)"/>
</clipPath>
</defs>
</svg>
