<svg width="16" height="12" viewBox="0 0 16 12" fill="none" xmlns="http://www.w3.org/2000/svg">
<path d="M14.5938 0.519043H1.40625C0.630844 0.519043 0 1.14989 0 1.92529V10.0747C0 10.8501 0.630844 11.481 1.40625 11.481H14.5938C15.3692 11.481 16 10.8501 16 10.0747V1.92529C16 1.14989 15.3692 0.519043 14.5938 0.519043ZM14.4102 1.45654L14.2225 1.61282L8.55794 6.32973C8.23462 6.59892 7.76531 6.59892 7.44206 6.32973L1.77747 1.61282L1.58978 1.45654H14.4102ZM0.9375 2.13336L5.55288 5.97657L0.9375 9.04823V2.13336ZM14.5938 10.5435H1.40625C1.17975 10.5435 0.990313 10.382 0.946906 10.1681L6.30456 6.60248L6.84219 7.05017C7.17762 7.32948 7.58884 7.46914 8.00003 7.46914C8.41122 7.46914 8.82241 7.32948 9.15788 7.05017L9.6955 6.60248L15.0531 10.1681C15.0097 10.382 14.8202 10.5435 14.5938 10.5435ZM15.0625 9.04823L10.4471 5.97661L15.0625 2.13336V9.04823Z" fill="#182045"/>
</svg>
