<svg width="16" height="16" viewBox="0 0 16 16" fill="none" xmlns="http://www.w3.org/2000/svg">
<path d="M2.34375 16H13.6562C14.9486 16 16 14.9486 16 13.6562V2.34375C16 1.05139 14.9486 0 13.6562 0H2.34375C1.05139 0 0 1.05139 0 2.34375V13.6562C0 14.9486 1.05139 16 2.34375 16ZM0.9375 2.34375C0.9375 1.56836 1.56836 0.9375 2.34375 0.9375H13.6562C14.4316 0.9375 15.0625 1.56836 15.0625 2.34375V13.6562C15.0625 14.4316 14.4316 15.0625 13.6562 15.0625H2.34375C1.56836 15.0625 0.9375 14.4316 0.9375 13.6562V2.34375Z" fill="#182045"/>
<path d="M8 12.2188C10.3262 12.2188 12.2188 10.3262 12.2188 8C12.2188 5.67383 10.3262 3.78125 8 3.78125C5.67383 3.78125 3.78125 5.67383 3.78125 8C3.78125 10.3262 5.67383 12.2188 8 12.2188ZM8 4.71875C9.80933 4.71875 11.2813 6.19067 11.2813 8C11.2813 9.80933 9.80933 11.2813 8 11.2813C6.19067 11.2813 4.71875 9.80933 4.71875 8C4.71875 6.19067 6.19067 4.71875 8 4.71875Z" fill="#182045"/>
<path d="M12.6875 4.71875C13.4629 4.71875 14.0938 4.08789 14.0938 3.3125C14.0938 2.53711 13.4629 1.90625 12.6875 1.90625C11.9121 1.90625 11.2812 2.53711 11.2812 3.3125C11.2812 4.08789 11.9121 4.71875 12.6875 4.71875ZM12.6875 2.84375C12.9459 2.84375 13.1562 3.05408 13.1562 3.3125C13.1562 3.57092 12.9459 3.78125 12.6875 3.78125C12.4291 3.78125 12.2188 3.57092 12.2188 3.3125C12.2188 3.05408 12.4291 2.84375 12.6875 2.84375Z" fill="#182045"/>
</svg>
