<svg width="24" height="24" viewBox="0 0 24 24" fill="none" xmlns="http://www.w3.org/2000/svg">
<path d="M24 23.2002H0V24.0002H24V23.2002Z" fill="#616781"/>
<path d="M1.6002 22.3999H5.6002C5.8211 22.3999 6.0002 22.2208 6.0002 21.9999V14.7999C6.0002 14.579 5.8211 14.3999 5.6002 14.3999H1.6002C1.3793 14.3999 1.2002 14.579 1.2002 14.7999V21.9999C1.2002 22.2208 1.3793 22.3999 1.6002 22.3999ZM2.0002 15.1999H5.2002V21.5999H2.0002V15.1999Z" fill="#616781"/>
<path d="M12.7999 22.4001H16.7999C17.0208 22.4001 17.1999 22.221 17.1999 22.0001V10.0001C17.1999 9.7792 17.0208 9.6001 16.7999 9.6001H12.7999C12.579 9.6001 12.3999 9.7792 12.3999 10.0001V22.0001C12.3999 22.221 12.579 22.4001 12.7999 22.4001ZM13.1999 10.4001H16.3999V21.6001H13.1999V10.4001Z" fill="#616781"/>
<path d="M7.1998 22.3998H11.1998C11.4207 22.3998 11.5998 22.2207 11.5998 21.9998V5.1998C11.5998 4.9789 11.4207 4.7998 11.1998 4.7998H7.1998C6.9789 4.7998 6.7998 4.9789 6.7998 5.1998V21.9998C6.7998 22.2207 6.9789 22.3998 7.1998 22.3998ZM7.5998 5.5998H10.7998V21.5998H7.5998V5.5998Z" fill="#616781"/>
<path d="M18.4 22.4H22.4C22.6209 22.4 22.8 22.2209 22.8 22V0.4C22.8 0.1791 22.6209 0 22.4 0H18.4C18.1791 0 18 0.1791 18 0.4V22C18 22.2209 18.1791 22.4 18.4 22.4ZM18.8 0.8H22V21.6H18.8V0.8Z" fill="#616781"/>
</svg>
