<svg width="22" height="24" viewBox="0 0 22 24" fill="none" xmlns="http://www.w3.org/2000/svg">
<path d="M19.2099 8.20981C19.2099 3.67566 15.5342 0 11.0001 0C6.46592 0 2.79027 3.67566 2.79027 8.20981C1.61809 8.35576 0.509766 9.12201 0.509766 10.9008V15.1881C0.509766 17.195 1.91455 17.9247 3.24637 17.9247H4.56906C4.82094 17.9247 5.02516 17.7205 5.02516 17.4686V8.63854C5.02516 8.38666 4.82094 8.18244 4.56906 8.18244H3.70247C3.70247 4.15211 6.96974 0.884835 11.0001 0.884835C15.0304 0.884835 18.2977 4.15211 18.2977 8.18244H17.4311C17.1792 8.18244 16.975 8.38666 16.975 8.63854V17.455C16.975 17.7068 17.1792 17.9111 17.4311 17.9111H18.2977C18.17 21.0445 16.6648 21.7788 13.6591 21.9111V21.6055C13.6591 21.1017 13.2508 20.6933 12.7469 20.6933H9.87807C9.37425 20.6933 8.96587 21.1017 8.96587 21.6055V23.0878C8.96587 23.5916 9.37425 24 9.87807 24H12.7561C13.2599 24 13.6683 23.5916 13.6683 23.0878V22.8233C16.5599 22.691 19.0594 22.0935 19.2099 17.8837C20.3821 17.7377 21.4904 16.9715 21.4904 15.1927V10.9054C21.4904 9.11745 20.3866 8.35576 19.2099 8.20981ZM4.11296 9.06271V16.9989H3.22356C2.54853 16.9989 1.39916 16.7617 1.39916 15.1745V10.8871C1.39916 9.31357 2.53485 9.06271 3.22356 9.06271H4.11296ZM12.7561 22.3991V23.0924H9.87807V21.61H12.7561V22.3991ZM20.5782 15.1881C20.5782 16.7617 19.4425 17.0125 18.7538 17.0125H17.8872V9.09464H18.7766C19.4516 9.09464 20.601 9.33181 20.601 10.919L20.5782 15.1881Z" fill="#616781"/>
</svg>
