<svg width="24" height="20" viewBox="0 0 24 20" fill="none" xmlns="http://www.w3.org/2000/svg">
<path d="M22.5 2.70808C22.5 1.72591 21.7009 0.90625 20.7188 0.90625H2.15625C1.17408 0.90625 0.375 1.72591 0.375 2.70808V13.8757C0.375 14.8579 1.17408 15.6719 2.15625 15.6719H13.1634C13.9629 17.6406 15.9197 19.0806 18.2016 19.0806C21.1922 19.0806 23.625 16.644 23.625 13.6535C23.6262 12.4572 23.2305 11.2943 22.5 10.3469V2.70808ZM1.125 2.70808C1.125 2.13948 1.58761 1.65625 2.15625 1.65625H20.7188C21.2874 1.65625 21.75 2.13948 21.75 2.70808V3.10938H1.125V2.70808ZM1.125 3.85938H21.75V5.82812H1.125V3.85938ZM12.9256 14.9219H2.15625C1.88131 14.9182 1.61891 14.8063 1.42588 14.6105C1.23285 14.4147 1.12475 14.1507 1.125 13.8757V6.57812H21.75V9.5515C20.766 8.69587 19.5056 8.22519 18.2016 8.22639C15.2109 8.22639 12.7781 10.6667 12.7781 13.6572C12.7791 14.083 12.8286 14.5073 12.9256 14.9219ZM22.875 13.6497C22.875 14.5741 22.6009 15.4776 22.0874 16.2462C21.5739 17.0147 20.844 17.6137 19.99 17.9674C19.1361 18.3211 18.1964 18.4137 17.2898 18.2334C16.3833 18.053 15.5505 17.6079 14.8969 16.9544C14.2434 16.3008 13.7983 15.468 13.6179 14.5615C13.4376 13.6549 13.5301 12.7152 13.8839 11.8613C14.2376 11.0073 14.8366 10.2774 15.6051 9.76391C16.3737 9.25039 17.2772 8.9763 18.2016 8.9763C19.4406 8.9777 20.6285 9.47053 21.5046 10.3467C22.3808 11.2228 22.8736 12.4107 22.875 13.6497Z" fill="#616781"/>
</svg>
