<svg width="16" height="16" viewBox="0 0 16 16" fill="none" xmlns="http://www.w3.org/2000/svg">
<g clip-path="url(#clip0)">
<path d="M14.2731 9.31242L14.2644 9.30435C14.1278 9.17801 13.7094 8.76998 13.5683 8.59166C13.4026 8.36917 13.4408 8.22338 13.565 8.00494C13.7218 7.72889 14.0362 7.30545 14.3688 6.85707C15.4342 5.4214 16.1221 4.42752 15.9805 3.72155L15.9042 3.34447L11.9695 3.34618C11.9557 3.38336 11.7504 4.28711 10.8839 5.826C10.2556 6.94183 9.84353 7.29237 9.69838 7.35425L9.67592 7.3474C9.62868 7.28894 9.54616 7.13116 9.51223 6.72448C9.47683 6.29848 9.5082 5.7827 9.53859 5.28393C9.57412 4.69904 9.60476 4.19391 9.53139 3.83248L9.41188 3.24369C9.26748 3.22057 8.73879 3.01619 7.26576 3.00066C5.99049 2.98757 5.61586 3.17214 5.4319 3.33481L4.82337 3.87284L5.59254 4.13214C5.88527 4.23084 5.98243 4.34471 6.06215 4.90917C6.11415 5.27708 6.14137 5.89535 6.08522 6.44733C6.00453 7.23879 5.81105 7.38605 5.80104 7.39388C5.76771 7.38251 5.48512 7.25861 4.99452 6.21935C4.65418 5.49858 4.35584 4.64596 4.13783 4.02341C3.88831 3.31047 3.93324 3.46225 3.80665 3.12541L0 3.12529L0.246338 3.76375C1.27332 6.42801 2.21558 8.50861 3.47657 10.003C4.86976 11.654 6.60121 12.5185 8.93349 12.5185H9.40224V12.0488C9.40224 11.6098 9.4385 11.2936 9.51626 11.0539C9.56374 10.9078 9.62685 10.7871 9.69314 10.6605C9.79152 10.4741 9.88772 10.3942 9.94021 10.3824C9.98781 10.3715 10.0716 10.4065 10.1643 10.4758C10.4307 10.6748 10.6421 10.9363 10.866 11.2132C11.189 11.6128 11.523 12.0259 12.0529 12.2963C12.3424 12.444 12.8732 12.5186 13.1653 12.5186C13.2426 12.5186 15.9966 12.5185 16 12.5185L15.9799 12.0295C15.9499 11.2984 15.3755 10.3841 14.2731 9.31242ZM13.1835 11.5792H13.1759C12.9745 11.5825 12.5901 11.5163 12.4783 11.4593C12.126 11.2795 11.8798 10.9749 11.5945 10.6221C11.3441 10.3123 11.0852 9.99197 10.7248 9.72277C10.4332 9.50494 10.1685 9.44122 9.95827 9.44122C9.87429 9.44122 9.79885 9.45137 9.73415 9.46604C9.49013 9.52108 9.14113 9.69696 8.86367 10.2228C8.78542 10.3724 8.69667 10.5418 8.62477 10.7634C8.54946 10.9953 8.50258 11.253 8.48024 11.5665C6.72267 11.4664 5.35121 10.7697 4.19251 9.39657C3.11524 8.11979 2.2677 6.33395 1.37012 4.06426C1.43506 4.06426 3.06238 4.0645 3.15845 4.0645C3.18787 4.14731 3.21961 4.23806 3.2533 4.3342C3.48829 5.0058 3.81019 5.92544 4.18946 6.70968C4.73255 7.83273 5.22853 8.33358 5.7975 8.33358C6.08155 8.33358 6.33632 8.21299 6.53419 7.98463C6.8163 7.65917 6.98012 7.12199 7.03505 6.34227C7.07838 5.72742 7.0381 5.11502 6.99049 4.77757C6.95119 4.49992 6.89516 4.20846 6.75844 3.94733C7.34108 3.92103 8.12123 3.96262 8.6155 4.03368C8.66042 4.27879 8.63112 4.76057 8.6028 5.22669C8.53432 6.35266 8.46364 7.5146 9.05849 8.05827C9.1631 8.15391 9.27407 8.20516 9.27724 8.20724L9.57998 8.30032C9.6968 8.26423 10.3734 8.60817 11.6547 6.36783C12.0652 5.65 12.4474 4.82282 12.6532 4.28258C13.1305 4.2816 14.7566 4.28344 14.9477 4.28368C14.677 4.88043 14.0357 5.73158 13.6165 6.29652C13.251 6.78894 12.9355 7.21421 12.7503 7.54004C12.4063 8.14535 12.4641 8.68486 12.8224 9.16076L12.828 9.1681C13.028 9.42311 13.5218 9.89523 13.6242 9.99038C14.3661 10.7121 14.7237 11.2306 14.8938 11.5791L13.1835 11.5792Z" fill="#182045"/>
</g>
<defs>
<clipPath id="clip0">
<rect width="16" height="16" fill="white"/>
</clipPath>
</defs>
</svg>
